<?xml version="1.0" encoding="iso-8859-1"?>
<!-- Uploaded to: SVG Repo, www.svgrepo.com, Generator: SVG Repo Mixer Tools -->
<svg fill="#000000" height="800px" width="800px" version="1.1" id="Capa_1" xmlns="http://www.w3.org/2000/svg" xmlns:xlink="http://www.w3.org/1999/xlink" 
	 viewBox="0 0 415 415" xml:space="preserve">
<g>
	<path d="M373,27H43C19.565,27,0,45.565,0,69v185c0,23.435,19.565,43,43,43h157v46H95v45h225v-45H215v-46h158
		c23.435,0,42-19.565,42-43V69C415,45.565,396.435,27,373,27z M305,373H110v-15h195V373z M400,254.5c0,15.188-12.312,27.5-27.5,27.5
		h-330C27.312,282,15,269.688,15,254.5v-185C15,54.312,27.312,42,42.5,42h330c15.188,0,27.5,12.312,27.5,27.5V254.5z"/>
	<path d="M45,252h325V72H45V252z M131.941,198.729l-0.15-0.154c-7.69-7.69-7.69-20.204,0-27.895l0.389-0.389
		c7.691-7.69,20.206-7.692,27.896,0l7.109,7.108l4.886-2.563c3.468-1.819,7.12-3.39,10.855-4.666l5.075-1.734v-9.712
		C188,148.05,196.48,140,207.725,140h0.55c11.246,0,19.725,8.05,19.725,18.725v9.712l5.074,1.734
		c3.707,1.268,7.359,2.84,10.855,4.674l4.88,2.56l7.115-7.097c7.655-7.656,20.098-7.68,27.801-0.078l0.482,0.513
		c7.708,7.709,7.708,20.251,0,27.958l-7.887,8.119l2.141,4.668c1.55,3.38,2.767,6.666,3.719,10.047l1.54,5.466h12.055
		c7.572,0,13.853,3.947,17.016,10h-62.853c-3.292-20.503-20.84-35.5-41.938-35.5s-38.646,14.997-41.938,35.5h-63.574
		c3.441-5.954,10.099-10,17.737-10h12.056l1.539-5.468c0.951-3.379,2.167-6.664,3.717-10.044l2.109-4.598L131.941,198.729z
		 M234.665,237h-53.33c3.008-12.248,13.821-20.5,26.665-20.5C220.844,216.5,231.656,224.752,234.665,237z M60,87h295v150h-26.219
		c-3.934-14.57-17.023-25-33.005-25h-0.908c-0.238-0.661-0.485-1.321-0.742-1.981l0.731-0.753
		c13.478-13.523,13.5-35.469,0.067-49.021l-0.497-0.529c-13.355-13.353-34.956-13.549-48.524-0.586
		c-0.965-0.435-1.936-0.852-2.912-1.252C242.543,139.373,227.456,125,208.275,125h-0.55c-19.18,0-34.266,14.372-34.715,32.876
		c-0.976,0.398-1.945,0.813-2.905,1.245c-13.581-12.97-35.183-12.784-48.532,0.563l-0.389,0.39
		c-13.511,13.512-13.537,35.481-0.08,49.027l0.798,0.845c-0.267,0.685-0.523,1.368-0.77,2.054h-0.907
		c-16.134,0-29.759,10.597-33.915,25H60V87z"/>
</g>
</svg>